# WaveFront *.obj file (generated by Autodesk ATF)

mtllib table boyd.mtl

g Solid1

v 0.000000 0.000000 -24.000000
v 0.000000 0.000000 0.000000
v 0.000000 42.000000 -24.000000
v 0.000000 42.000000 0.000000
v 3.000000 0.000000 -24.000000
v 3.000000 0.000000 0.000000
v 3.000000 38.999999 -24.000000
v 3.000000 38.999999 0.000000
v 93.000000 0.000000 -24.000000
v 93.000000 0.000000 0.000000
v 93.000000 38.999999 -24.000000
v 93.000000 38.999999 0.000000
v 95.999999 0.000000 -24.000000
v 95.999999 0.000000 0.000000
v 95.999999 42.000000 -24.000000
v 95.999999 42.000000 0.000000
vt 0.000000 0.000000 0.000000
vt 228.600006 0.000000 0.000000
vt 228.600006 60.959999 0.000000
vt 0.000000 60.959999 0.000000
vt 0.000000 0.000000 0.000000
vt 99.059998 0.000000 0.000000
vt 99.059998 60.959999 0.000000
vt 0.000000 60.959999 0.000000
vt 0.000000 0.000000 0.000000
vt 7.620000 0.000000 0.000000
vt 7.620000 60.959999 0.000000
vt 0.000000 60.959999 0.000000
vt 0.000000 0.000000 0.000000
vt 106.680000 0.000000 0.000000
vt 106.680000 60.959999 0.000000
vt 0.000000 60.959999 0.000000
vt 0.000000 0.000000 0.000000
vt 243.839996 0.000000 0.000000
vt 243.839996 60.959999 0.000000
vt 0.000000 60.959999 0.000000
vt 0.000000 0.000000 0.000000
vt 106.680000 0.000000 0.000000
vt 106.680000 60.959999 0.000000
vt 0.000000 60.959999 0.000000
vt 0.000000 0.000000 0.000000
vt 7.620000 0.000000 0.000000
vt 7.620000 60.959999 0.000000
vt 0.000000 60.959999 0.000000
vt 0.000000 0.000000 0.000000
vt 99.059998 0.000000 0.000000
vt 99.059998 60.959999 0.000000
vt 0.000000 60.959999 0.000000
vt -114.300003 -53.340000 0.000000
vt -114.300003 45.720001 0.000000
vt 114.300003 45.720001 0.000000
vt 114.300003 -53.340000 0.000000
vt 121.919998 -53.340000 0.000000
vt 121.919998 53.340000 0.000000
vt -121.919998 53.340000 0.000000
vt -121.919998 -53.340000 0.000000
vt 114.300003 45.720001 0.000000
vt 114.300003 -53.340000 0.000000
vt 121.919998 -53.340000 0.000000
vt 121.919998 53.340000 0.000000
vt -121.919998 53.340000 0.000000
vt -121.919998 -53.340000 0.000000
vt -114.300003 -53.340000 0.000000
vt -114.300003 45.720001 0.000000
vn 0.000000 -2.540000 0.000000
vn 0.000000 -2.540000 0.000000
vn 0.000000 -2.540000 0.000000
vn 0.000000 -2.540000 0.000000
vn -2.540000 0.000000 0.000000
vn -2.540000 0.000000 0.000000
vn -2.540000 0.000000 0.000000
vn -2.540000 0.000000 0.000000
vn 0.000000 -2.540000 0.000000
vn 0.000000 -2.540000 0.000000
vn 0.000000 -2.540000 0.000000
vn 0.000000 -2.540000 0.000000
vn 2.540000 0.000000 0.000000
vn 2.540000 0.000000 0.000000
vn 2.540000 0.000000 0.000000
vn 2.540000 0.000000 0.000000
vn 0.000000 2.540000 0.000000
vn 0.000000 2.540000 0.000000
vn 0.000000 2.540000 0.000000
vn 0.000000 2.540000 0.000000
vn -2.540000 0.000000 0.000000
vn -2.540000 0.000000 0.000000
vn -2.540000 0.000000 0.000000
vn -2.540000 0.000000 0.000000
vn 0.000000 -2.540000 0.000000
vn 0.000000 -2.540000 0.000000
vn 0.000000 -2.540000 0.000000
vn 0.000000 -2.540000 0.000000
vn 2.540000 0.000000 0.000000
vn 2.540000 0.000000 0.000000
vn 2.540000 0.000000 0.000000
vn 2.540000 0.000000 0.000000
vn 0.000000 0.000000 2.540000
vn 0.000000 0.000000 2.540000
vn 0.000000 0.000000 2.540000
vn 0.000000 0.000000 2.540000
vn 0.000000 0.000000 2.540000
vn 0.000000 0.000000 2.540000
vn 0.000000 0.000000 2.540000
vn 0.000000 0.000000 2.540000
vn 0.000000 0.000000 -2.540000
vn 0.000000 0.000000 -2.540000
vn 0.000000 0.000000 -2.540000
vn 0.000000 0.000000 -2.540000
vn 0.000000 0.000000 -2.540000
vn 0.000000 0.000000 -2.540000
vn 0.000000 0.000000 -2.540000
vn 0.000000 0.000000 -2.540000
usemtl 191,191,191
f 12/1/1 8/2/2 11/4/4
f 11/4/4 8/2/2 7/3/3
f 10/5/5 12/6/6 9/8/8
f 9/8/8 12/6/6 11/7/7
f 14/9/9 10/10/10 13/12/12
f 13/12/12 10/10/10 9/11/11
f 16/13/13 14/14/14 15/16/16
f 15/16/16 14/14/14 13/15/15
f 4/17/17 16/18/18 3/20/20
f 3/20/20 16/18/18 15/19/19
f 2/21/21 4/22/22 1/24/24
f 1/24/24 4/22/22 3/23/23
f 6/25/25 2/26/26 5/28/28
f 5/28/28 2/26/26 1/27/27
f 8/29/29 6/30/30 7/32/32
f 7/32/32 6/30/30 5/31/31
f 6/33/33 8/34/34 2/40/40
f 2/40/40 8/34/34 4/39/39
f 4/39/39 8/34/34 12/35/35
f 4/39/39 12/35/35 16/38/38
f 16/38/38 12/35/35 14/37/37
f 14/37/37 12/35/35 10/36/36
f 5/42/42 1/43/43 7/41/41
f 7/41/41 1/43/43 3/44/44
f 7/41/41 3/44/44 15/45/45
f 7/41/41 15/45/45 11/48/48
f 11/48/48 15/45/45 13/46/46
f 11/48/48 13/46/46 9/47/47
# 16 vertices
# 48 texture params
# 48 normals
# 28 facets

# 1 groups
